<svg width="307" height="306" viewBox="0 0 307 306" fill="none" xmlns="http://www.w3.org/2000/svg">
<path d="M244.395 90.9855C252.521 102.934 258.215 116.366 261.15 130.515C264.085 144.664 264.204 159.252 261.5 173.447C258.797 187.642 253.324 201.165 245.393 213.244C237.463 225.324 227.231 235.723 215.281 243.848C203.335 251.973 189.905 257.665 175.758 260.6C161.612 263.534 147.026 263.653 132.833 260.95C118.641 258.247 105.119 252.775 93.042 244.846C80.9645 236.917 70.5672 226.686 62.4439 214.739C54.3038 202.791 48.5985 189.357 45.654 175.203C42.7096 161.049 42.5839 146.454 45.284 132.252C47.9842 118.05 53.4572 104.519 61.3903 92.433C69.3233 80.3473 79.5608 69.9438 91.5173 61.8174C103.469 53.691 116.906 47.9992 131.058 45.067C145.21 42.1349 159.802 42.0198 173.999 44.7285C188.196 47.4372 201.72 52.9165 213.799 60.8535C225.878 68.7904 236.274 79.0294 244.395 90.9855Z" fill="white"/>
<path d="M211.558 238.372C258.792 206.257 271.049 141.932 238.934 94.6983C206.819 47.4644 142.494 35.2078 95.2604 67.3226C48.0265 99.4373 35.77 163.762 67.8847 210.996C99.9995 258.23 164.324 270.487 211.558 238.372Z" fill="#FF0000"/>
<path d="M123.927 194.978C120.896 197.039 117.815 198.318 114.684 198.816C111.568 199.305 108.65 199.042 105.932 198.026C103.214 197.01 100.966 195.257 99.1888 192.766L108.194 186.643C109.451 188.276 111.104 189.169 113.152 189.323C115.201 189.477 117.14 188.932 118.97 187.688C120.428 186.697 121.496 185.5 122.173 184.099C122.856 182.674 123.118 181.168 122.959 179.583C122.806 177.973 122.214 176.411 121.183 174.895C120.134 173.352 118.882 172.217 117.427 171.492C115.987 170.757 114.471 170.45 112.881 170.57C111.29 170.69 109.754 171.243 108.272 172.23C106.985 173.105 105.914 174.22 105.059 175.575C104.218 176.92 103.772 178.278 103.722 179.65L94.4612 183.783L80.7961 159.212L107.642 140.959L112.802 148.55L93.6118 161.598L99.9542 173.37L100.211 173.195C100.245 171.584 100.797 169.891 101.87 168.117C102.942 166.343 104.443 164.8 106.373 163.488C109.017 161.69 111.798 160.708 114.717 160.542C117.635 160.377 120.433 160.972 123.111 162.328C125.78 163.671 128.064 165.755 129.964 168.58C131.99 171.53 133.093 174.626 133.271 177.87C133.454 181.091 132.756 184.199 131.177 187.196C129.602 190.168 127.186 192.762 123.927 194.978Z" fill="white"/>
<path d="M163.428 168.316C159.73 170.81 155.94 172.059 152.056 172.066C148.187 172.063 144.377 170.839 140.624 168.395C136.886 165.94 133.392 162.307 130.14 157.494C126.884 152.706 124.817 148.143 123.939 143.808C123.074 139.462 123.367 135.511 124.816 131.955C126.269 128.375 128.833 125.336 132.507 122.838C136.181 120.34 139.942 119.078 143.792 119.053C147.656 119.018 151.45 120.201 155.173 122.603C158.886 124.99 162.364 128.583 165.605 133.381C168.881 138.198 170.965 142.801 171.858 147.19C172.766 151.568 172.51 155.557 171.09 159.156C169.67 162.755 167.116 165.809 163.428 168.316ZM158.194 160.619C160.71 158.908 161.859 156.277 161.639 152.727C161.42 149.176 159.583 144.876 156.128 139.825C153.863 136.494 151.635 133.954 149.442 132.205C147.264 130.446 145.174 129.432 143.172 129.163C141.185 128.884 139.355 129.313 137.682 130.45C135.181 132.151 134.03 134.762 134.23 138.284C134.43 141.806 136.218 146.066 139.596 151.065C141.89 154.439 144.14 157.026 146.348 158.828C148.56 160.606 150.672 161.636 152.683 161.92C154.685 162.19 156.522 161.756 158.194 160.619ZM205.563 126.217L203.989 123.902C202.793 122.143 202.067 120.275 201.809 118.298C201.556 116.296 201.843 114.366 202.67 112.508C203.501 110.626 204.953 108.98 207.026 107.571C209.127 106.142 211.194 105.385 213.226 105.299C215.272 105.204 217.165 105.652 218.905 106.643C220.65 107.609 222.124 108.979 223.329 110.752L224.904 113.068C226.099 114.826 226.831 116.701 227.098 118.693C227.356 120.671 227.064 122.594 226.223 124.461C225.392 126.344 223.94 127.989 221.867 129.399C219.766 130.827 217.694 131.577 215.652 131.649C213.62 131.734 211.732 131.294 209.988 130.327C208.233 129.345 206.759 127.976 205.563 126.217ZM210.228 119.659L211.803 121.975C212.493 122.99 213.387 123.782 214.485 124.353C215.598 124.913 216.805 124.751 218.106 123.867C219.406 122.982 219.991 121.936 219.861 120.729C219.744 119.513 219.331 118.383 218.621 117.339L217.047 115.023C216.337 113.98 215.448 113.163 214.378 112.574C213.308 111.984 212.102 112.146 210.758 113.06C209.471 113.934 208.884 114.992 208.996 116.233C209.108 117.474 209.519 118.616 210.228 119.659ZM165.942 116.409L164.367 114.094C163.162 112.321 162.438 110.441 162.194 108.454C161.941 106.452 162.228 104.522 163.055 102.664C163.896 100.796 165.339 99.1671 167.383 97.7773C169.498 96.3388 171.572 95.5768 173.604 95.4912C175.636 95.4055 177.529 95.8533 179.283 96.8346C181.028 97.8016 182.503 99.1713 183.708 100.944L185.282 103.26C186.487 105.032 187.212 106.912 187.455 108.9C187.713 110.877 187.421 112.8 186.58 114.668C185.743 116.512 184.282 118.143 182.195 119.562C180.108 120.981 178.041 121.739 175.994 121.834C173.953 121.905 172.065 121.465 170.33 120.512C168.6 119.535 167.137 118.168 165.942 116.409ZM170.65 109.822L172.224 112.138C172.934 113.181 173.833 113.981 174.921 114.537C176.024 115.083 177.204 114.928 178.462 114.073C179.778 113.179 180.37 112.128 180.239 110.921C180.122 109.705 179.709 108.575 179 107.531L177.425 105.215C176.716 104.172 175.826 103.355 174.756 102.766C173.687 102.176 172.473 102.343 171.115 103.266C169.843 104.131 169.274 105.187 169.41 106.432C169.546 107.677 169.959 108.807 170.65 109.822ZM191.456 147.849L191.79 83.4089L197.407 79.5894L197.074 144.029L191.456 147.849Z" fill="white"/>
<path d="M131.571 219.291L125.939 223.12L115.987 208.482L121.561 204.692C123.067 203.668 124.567 203.077 126.062 202.918C127.558 202.751 128.976 203.013 130.317 203.704C131.659 204.387 132.848 205.49 133.885 207.015C134.922 208.54 135.515 210.053 135.664 211.554C135.811 213.05 135.538 214.462 134.845 215.79C134.149 217.113 133.058 218.28 131.571 219.291ZM127.619 217.045L129.134 216.014C129.859 215.522 130.396 214.986 130.747 214.406C131.103 213.822 131.22 213.154 131.098 212.401C130.981 211.644 130.576 210.756 129.883 209.737C129.189 208.717 128.51 208.015 127.845 207.631C127.185 207.244 126.511 207.114 125.823 207.24C125.14 207.363 124.417 207.683 123.655 208.202L122.254 209.154L127.619 217.045ZM134.722 195.744L144.674 210.382L140.7 213.084L130.748 198.446L134.722 195.744ZM147.606 193.673C147.244 193.223 146.812 192.972 146.311 192.923C145.816 192.87 145.246 193.062 144.603 193.499C144.193 193.778 143.891 194.056 143.697 194.334C143.504 194.605 143.403 194.865 143.392 195.116C143.382 195.367 143.447 195.602 143.588 195.819C143.699 196.002 143.838 196.141 144.007 196.235C144.177 196.321 144.382 196.367 144.622 196.371C144.858 196.37 145.134 196.329 145.448 196.248C145.762 196.167 146.117 196.044 146.513 195.879L147.889 195.32C148.816 194.941 149.663 194.696 150.431 194.585C151.198 194.474 151.895 194.484 152.521 194.616C153.144 194.743 153.702 194.984 154.194 195.339C154.691 195.691 155.131 196.144 155.515 196.698C156.165 197.664 156.478 198.642 156.455 199.633C156.432 200.625 156.096 201.595 155.446 202.546C154.801 203.493 153.859 204.388 152.62 205.23C151.348 206.095 150.11 206.662 148.906 206.93C147.706 207.195 146.579 207.115 145.524 206.69C144.47 206.257 143.524 205.43 142.687 204.208L146.46 201.642C146.789 202.074 147.157 202.374 147.564 202.543C147.972 202.712 148.41 202.752 148.879 202.663C149.353 202.571 149.842 202.353 150.347 202.01C150.771 201.721 151.091 201.428 151.305 201.128C151.52 200.829 151.638 200.536 151.659 200.25C151.681 199.964 151.613 199.7 151.455 199.459C151.298 199.238 151.092 199.093 150.835 199.023C150.581 198.945 150.248 198.949 149.838 199.032C149.425 199.111 148.906 199.276 148.282 199.526L146.61 200.203C145.123 200.803 143.782 201.028 142.587 200.879C141.393 200.722 140.41 200.071 139.637 198.924C139.001 197.998 138.696 197.017 138.723 195.981C138.752 194.937 139.079 193.917 139.705 192.921C140.335 191.921 141.229 191.027 142.387 190.24C143.568 189.437 144.725 188.939 145.856 188.748C146.988 188.558 148.031 188.663 148.988 189.065C149.945 189.459 150.752 190.133 151.408 191.088L147.606 193.673Z" fill="white"/>
<path d="M166.594 182.101L162.563 184.842C162.307 184.527 162.025 184.277 161.717 184.089C161.413 183.899 161.088 183.779 160.74 183.729C160.395 183.671 160.036 183.692 159.665 183.792C159.29 183.886 158.912 184.063 158.531 184.322C157.864 184.776 157.409 185.322 157.167 185.96C156.93 186.595 156.898 187.296 157.071 188.063C157.249 188.827 157.627 189.633 158.203 190.481C158.812 191.377 159.442 192.046 160.091 192.49C160.743 192.925 161.401 193.139 162.065 193.133C162.727 193.122 163.379 192.898 164.023 192.461C164.389 192.211 164.687 191.943 164.917 191.655C165.142 191.362 165.303 191.054 165.397 190.732C165.492 190.41 165.521 190.08 165.486 189.741C165.453 189.395 165.353 189.048 165.187 188.701L169.237 185.989C169.611 186.641 169.866 187.39 170.003 188.238C170.137 189.08 170.113 189.961 169.929 190.88C169.747 191.791 169.363 192.686 168.777 193.566C168.19 194.445 167.361 195.25 166.289 195.979C164.945 196.892 163.544 197.424 162.084 197.573C160.63 197.719 159.212 197.442 157.831 196.744C156.455 196.042 155.216 194.881 154.115 193.261C153.007 191.631 152.388 190.045 152.259 188.502C152.127 186.955 152.4 185.533 153.079 184.235C153.754 182.933 154.749 181.835 156.064 180.941C156.989 180.312 157.925 179.86 158.873 179.584C159.822 179.309 160.754 179.215 161.671 179.303C162.584 179.385 163.459 179.658 164.296 180.12C165.133 180.582 165.899 181.242 166.594 182.101Z" fill="white"/>
<path d="M182.042 174.273C183.15 175.903 183.767 177.493 183.895 179.043C184.019 180.589 183.739 182.017 183.054 183.325C182.366 184.629 181.36 185.732 180.035 186.632C178.701 187.539 177.299 188.071 175.831 188.226C174.363 188.374 172.934 188.106 171.542 187.422C170.152 186.729 168.906 185.573 167.804 183.953C166.696 182.324 166.078 180.738 165.949 179.195C165.821 177.644 166.099 176.219 166.782 174.918C167.467 173.609 168.477 172.501 169.811 171.594C171.135 170.694 172.532 170.165 174.001 170.01C175.467 169.849 176.897 170.114 178.292 170.803C179.684 171.487 180.934 172.643 182.042 174.273ZM177.953 177.053C177.357 176.176 176.738 175.517 176.097 175.075C175.457 174.626 174.805 174.4 174.142 174.398C173.48 174.388 172.82 174.606 172.163 175.053C171.505 175.501 171.057 176.035 170.818 176.657C170.581 177.272 170.551 177.961 170.729 178.725C170.909 179.481 171.296 180.297 171.892 181.174C172.489 182.05 173.107 182.714 173.747 183.163C174.389 183.605 175.04 183.831 175.702 183.841C176.365 183.843 177.026 183.62 177.683 183.173C178.341 182.726 178.788 182.195 179.025 181.581C179.264 180.959 179.294 180.27 179.115 179.514C178.937 178.75 178.55 177.929 177.953 177.053ZM187.567 159.814L191.541 157.112L197.916 166.49C198.674 167.605 199.064 168.751 199.084 169.929C199.106 171.098 198.793 172.227 198.146 173.315C197.496 174.398 196.545 175.365 195.291 176.218C194.029 177.076 192.774 177.608 191.528 177.815C190.278 178.016 189.114 177.892 188.034 177.442C186.956 176.983 186.038 176.196 185.28 175.081L178.904 165.704L182.878 163.002L189.021 172.036C189.328 172.489 189.704 172.826 190.147 173.047C190.587 173.264 191.051 173.352 191.54 173.313C192.033 173.27 192.506 173.095 192.959 172.787C193.416 172.476 193.753 172.1 193.97 171.661C194.186 171.221 194.275 170.756 194.235 170.268C194.192 169.774 194.017 169.301 193.709 168.849L187.567 159.814ZM206.094 147.217L216.047 161.855L212.73 164.11L202.213 160.015L202.127 160.074L207.356 167.764L203.382 170.466L193.429 155.828L196.803 153.535L207.216 157.659L207.33 157.581L202.121 149.919L206.094 147.217Z" fill="white"/>
<path d="M222.4 141.643L218.294 144.435L225.683 155.303L221.758 157.972L214.369 147.103L210.243 149.908L207.917 146.487L220.073 138.221L222.4 141.643Z" fill="white"/>
</svg>
